HIERARCHY
ROOT Hips
{
	OFFSET -32.860001 56.121803 44.745396
	CHANNELS 6 Xposition Yposition Zposition Zrotation Xrotation Yrotation
	JOINT Chest
	{
		OFFSET -0.637402 0.831600 5.390099
		CHANNELS 6 Xposition Yposition Zposition Zrotation Xrotation Yrotation
		JOINT Chest2
		{
			OFFSET 0.000000 0.000000 4.429901
			CHANNELS 6 Xposition Yposition Zposition Zrotation Xrotation Yrotation
			JOINT Neck
			{
				OFFSET 0.000000 0.000000 10.301395
				CHANNELS 6 Xposition Yposition Zposition Zrotation Xrotation Yrotation
				JOINT Head
				{
					OFFSET 0.000000 0.000000 2.173897
					CHANNELS 6 Xposition Yposition Zposition Zrotation Xrotation Yrotation
					End Site
					{
						OFFSET 0.000000 0.000000 8.298004
					}
				}
			}
			JOINT LeftCollar
			{
				OFFSET 2.142401 -0.572701 5.717800
				CHANNELS 6 Xposition Yposition Zposition Zrotation Xrotation Yrotation
				JOINT LeftShoulder
				{
					OFFSET 5.674000 0.000000 0.000000
					CHANNELS 6 Xposition Yposition Zposition Zrotation Xrotation Yrotation
					JOINT LeftElbow
					{
						OFFSET 0.000000 0.000000 -12.238701
						CHANNELS 6 Xposition Yposition Zposition Zrotation Xrotation Yrotation
						JOINT LeftWrist
						{
							OFFSET 0.000000 0.000000 -10.253700
							CHANNELS 6 Xposition Yposition Zposition Zrotation Xrotation Yrotation
							End Site
							{
								OFFSET 0.000000 0.000000 -2.173901
							}
						}
					}
				}
			}
			JOINT RightCollar
			{
				OFFSET -2.882599 -1.580101 6.695801
				CHANNELS 6 Xposition Yposition Zposition Zrotation Xrotation Yrotation
				JOINT RightShoulder
				{
					OFFSET -4.235600 0.000000 0.000000
					CHANNELS 6 Xposition Yposition Zposition Zrotation Xrotation Yrotation
					JOINT RightElbow
					{
						OFFSET 0.000000 0.000000 -10.709900
						CHANNELS 6 Xposition Yposition Zposition Zrotation Xrotation Yrotation
						JOINT RightWrist
						{
							OFFSET 0.000000 0.000000 -11.716801
							CHANNELS 6 Xposition Yposition Zposition Zrotation Xrotation Yrotation
							End Site
							{
								OFFSET 0.000000 0.000000 -2.173901
							}
						}
					}
				}
			}
		}
	}
	JOINT LeftHip
	{
		OFFSET 2.279499 0.210400 -2.475502
		CHANNELS 6 Xposition Yposition Zposition Zrotation Xrotation Yrotation
		JOINT LeftKnee
		{
			OFFSET 0.000000 -0.000004 -20.742800
			CHANNELS 6 Xposition Yposition Zposition Zrotation Xrotation Yrotation
			JOINT LeftAnkle
			{
				OFFSET 0.000000 0.000000 -16.666000
				CHANNELS 6 Xposition Yposition Zposition Zrotation Xrotation Yrotation
				End Site
				{
					OFFSET 0.000000 -8.310898 0.000000
				}
			}
		}
	}
	JOINT RightHip
	{
		OFFSET -1.961899 0.232300 -2.727402
		CHANNELS 6 Xposition Yposition Zposition Zrotation Xrotation Yrotation
		JOINT RightKnee
		{
			OFFSET 0.000000 -0.000004 -20.526800
			CHANNELS 6 Xposition Yposition Zposition Zrotation Xrotation Yrotation
			JOINT RightAnkle
			{
				OFFSET 0.000000 0.000000 -16.867300
				CHANNELS 6 Xposition Yposition Zposition Zrotation Xrotation Yrotation
				End Site
				{
					OFFSET 0.000000 -7.186401 0.000000
				}
			}
		}
	}
}
MOTION
Frames: 7
Frame Time: 0.041667
56.435394 53.818104 45.602795 2015.990548 7.631314 12.161065 -0.637408 0.831603 5.390100 -3.863643 -4.987412 5.402913 -0.000004 -0.000006 4.429907 0.022747 0.062119 0.045875 -0.000012 -0.000005 10.301391 416.910212 1.704731 -12.219753 0.000003 0.000010 2.173901 -357.447732 3.681680 3.676794 2.142393 -0.572698 5.717799 6.972977 -9.782640 -13.324946 5.674000 -0.000002 0.000001 -10.522549 -717.072382 279.341623 0.000002 -0.000003 -12.238705 -803.910861 32.396185 -111.507428 0.000002 -0.000002 -10.253708 303.450606 6.389495 -31.356463 -2.882607 -1.580102 6.695786 -3.567552 -7.960804 31.751651 -4.235613 -0.000001 -0.000006 -1467.712904 -62.943000 -649.462908 -0.000000 -0.000002 -10.709900 119.147582 -159.713428 153.113894 0.000000 -0.000010 -11.716811 -892.987893 -3.957896 -39.693453 2.279499 0.210408 -2.475501 392.273883 -28.481551 -5.582916 0.000000 0.000000 -20.742800 -374.916050 26.748636 -4.414164 -0.000006 -0.000002 -16.665998 360.779608 25.729104 12.841025 -1.961897 0.232301 -2.727399 -1078.672870 -1.842073 11.610548 -0.000001 -0.000002 -20.526798 883.531852 158.781367 -182.361939 0.000001 -0.000005 -16.867304 48.455654 70.099140 -45.181322
56.439293 53.812599 45.599689 2015.982024 7.577034 12.138353 -0.637399 0.831601 5.390098 -3.796858 -4.898784 5.412218 -0.000000 0.000002 4.429892 -0.065368 0.082648 0.045494 0.000000 -0.000006 10.301389 416.895021 1.684262 -12.190084 -0.000002 0.000003 2.173898 -357.401369 3.676951 3.676296 2.142384 -0.572701 5.717794 7.064621 -9.965347 -13.522759 5.673994 -0.000004 0.000005 -10.628987 -717.012987 279.655265 0.000006 0.000008 -12.238701 -803.917473 32.522653 -111.478099 0.000008 0.000007 -10.253710 303.550873 6.403512 -31.374679 -2.882612 -1.580103 6.695789 -3.703003 -8.339961 32.392688 -4.235609 -0.000005 -0.000004 -1468.502365 -62.390356 -650.721575 0.000005 0.000006 -10.709919 119.675761 -159.413514 153.202250 -0.000001 -0.000011 -11.716805 -893.586436 -3.953888 -39.804502 2.279504 0.210412 -2.475502 392.386991 -28.464807 -5.545809 -0.000003 -0.000004 -20.742798 -374.905860 26.768261 -4.424131 0.000005 0.000005 -16.666002 360.692537 25.732063 12.827750 -1.961893 0.232306 -2.727400 -1078.908047 -1.915674 11.627173 -0.000005 -0.000006 -20.526794 883.643976 158.679091 -182.279034 0.000006 -0.000003 -16.867294 48.577040 70.083267 -45.161699
56.441513 53.807606 45.597591 2016.002132 7.506126 12.120532 -0.637392 0.831596 5.390103 -3.753951 -4.781701 5.408761 -0.000003 -0.000008 4.429904 -0.143665 0.087489 0.044221 0.000004 0.000005 10.301391 416.834970 1.666135 -12.172091 -0.000001 0.000005 2.173899 -357.354350 3.673750 3.663497 2.142396 -0.572690 5.717797 7.137419 -10.102715 -13.658681 5.674000 -0.000008 0.000007 -10.732769 -716.937472 279.888530 -0.000008 0.000006 -12.238698 -803.868022 32.698994 -111.457957 0.000006 0.000000 -10.253702 303.712230 6.414602 -31.378422 -2.882607 -1.580086 6.695795 -3.709728 -8.584375 32.366429 -4.235612 -0.000001 0.000002 -1468.338222 -61.964794 -650.804794 -0.000003 0.000002 -10.709906 119.818307 -158.986983 153.209613 -0.000001 -0.000012 -11.716821 -894.100395 -3.994004 -40.041192 2.279505 0.210404 -2.475494 392.455238 -28.427130 -5.532492 0.000001 -0.000012 -20.742804 -374.898784 26.784587 -4.437343 0.000000 0.000005 -16.665998 360.616749 25.730253 12.820952 -1.961885 0.232299 -2.727397 -1079.092626 -1.934427 11.632473 -0.000007 -0.000001 -20.526802 883.734244 158.601022 -182.213205 -0.000007 0.000008 -16.867298 48.666119 70.063602 -45.147513
56.442902 53.802391 45.595997 2016.039944 7.438756 12.102435 -0.637415 0.831600 5.390103 -3.737596 -4.659176 5.396026 0.000003 -0.000000 4.429899 -0.210557 0.076948 0.041782 0.000006 0.000010 10.301399 416.832539 1.635532 -12.182325 -0.000001 -0.000001 2.173899 -357.368174 3.685872 3.635650 2.142399 -0.572693 5.717803 7.226417 -10.242730 -13.748092 5.674005 0.000001 -0.000007 -10.874747 -716.818900 280.067754 0.000002 -0.000005 -12.238701 -803.739014 32.984913 -111.468783 0.000007 0.000005 -10.253704 304.002759 6.411123 -31.369000 -2.882599 -1.580090 6.695795 -3.709273 -8.790170 32.344231 -4.235589 -0.000007 0.000001 -1468.182056 -61.545516 -650.856048 -0.000006 0.000011 -10.709909 119.989485 -158.602593 153.244624 -0.000004 -0.000006 -11.716801 -894.832263 -4.206283 -41.014787 2.279494 0.210408 -2.475494 392.540097 -28.397606 -5.499756 -0.000004 -0.000014 -20.742800 -374.896926 26.806804 -4.467068 -0.000004 -0.000003 -16.665998 360.514678 25.731998 12.822019 -1.961905 0.232304 -2.727396 -1079.270211 -1.938534 11.635839 0.000000 0.000000 -20.526802 883.833691 158.537092 -182.165530 -0.000008 0.000007 -16.867302 48.698474 70.050625 -45.110186
56.443497 53.797699 45.594387 2016.076226 7.371541 12.086941 -0.637399 0.831600 5.390107 -3.727510 -4.541775 5.377068 -0.000000 0.000006 4.429898 -0.262839 0.060521 0.038874 0.000005 0.000001 10.301391 416.856062 1.608243 -12.202607 -0.000001 0.000000 2.173897 -357.386725 3.701390 3.621524 2.142404 -0.572692 5.717803 7.313284 -10.373611 -13.800112 5.673997 -0.000001 -0.000003 -11.021309 -716.689345 280.192938 0.000003 0.000012 -12.238704 -803.567002 33.330794 -111.505338 0.000006 -0.000003 -10.253705 304.375387 6.402878 -31.353983 -2.882600 -1.580104 6.695793 -3.712164 -8.965213 32.333385 -4.235601 0.000000 -0.000005 -1468.079221 -61.203303 -650.898067 -0.000008 0.000000 -10.709902 119.842526 -158.411853 153.076233 -0.000000 -0.000004 -11.716806 -895.067549 -4.345830 -41.135753 2.279501 0.210401 -2.475497 392.659215 -28.370367 -5.447795 0.000005 -0.000007 -20.742792 -374.910586 26.828529 -4.517980 0.000003 0.000010 -16.665997 360.394686 25.732651 12.839143 -1.961891 0.232304 -2.727396 -1079.420147 -1.931379 11.636311 -0.000008 0.000003 -20.526808 883.937565 158.478721 -182.127609 -0.000000 0.000004 -16.867304 48.698139 70.029028 -45.070349
56.443817 53.792801 45.592789 2016.117317 7.319381 12.069187 -0.637391 0.831597 5.390103 -3.704771 -4.442332 5.358940 -0.000009 0.000000 4.429903 -0.329532 0.051593 0.036097 0.000001 -0.000008 10.301403 416.902043 1.578973 -12.234231 -0.000001 -0.000004 2.173899 -357.426914 3.723081 3.625229 2.142405 -0.572705 5.717804 7.408249 -10.526755 -13.870634 5.674009 0.000002 -0.000008 -11.174655 -716.543616 280.328503 0.000007 0.000002 -12.238708 -803.329913 33.767981 -111.602573 0.000006 -0.000010 -10.253705 304.858035 6.377482 -31.332922 -2.882598 -1.580098 6.695798 -3.708724 -9.178092 32.334057 -4.235604 0.000003 -0.000007 -1467.859999 -60.804960 -650.833645 0.000005 -0.000010 -10.709902 119.714911 -158.269389 152.980378 0.000007 -0.000006 -11.716802 -895.424140 -4.355905 -41.461523 2.279510 0.210397 -2.475492 392.753089 -28.349699 -5.393417 0.000002 -0.000005 -20.742796 -374.914466 26.851065 -4.572911 -0.000004 0.000011 -16.666002 360.278982 25.738362 12.867869 -1.961888 0.232296 -2.727401 -1079.596748 -1.941691 11.642190 -0.000003 0.000003 -20.526794 884.095096 158.409750 -182.105138 -0.000009 0.000001 -16.867306 48.644795 69.992056 -44.991443
56.444504 53.787903 45.591293 2016.152943 7.276890 12.053939 -0.637396 0.831602 5.390098 -3.880764 -4.380803 5.315689 -0.000007 -0.000005 4.429895 -0.171102 0.007393 0.035723 0.000003 0.000003 10.301397 417.354502 1.485732 -12.507854 -0.000001 0.000004 2.173893 -357.904972 3.758576 3.836358 2.142398 -0.572696 5.717800 7.201827 -10.123923 -13.519455 5.673995 -0.000003 0.000002 -10.958665 -716.667052 279.902791 -0.000002 0.000003 -12.238698 -803.029657 34.184038 -111.652795 0.000002 -0.000009 -10.253696 305.341230 6.348855 -31.333483 -2.882607 -1.580091 6.695792 -3.723513 -8.650929 32.285314 -4.235605 0.000006 0.000003 -1468.404119 -61.242604 -651.292306 0.000002 0.000002 -10.709894 119.674395 -158.184914 152.951800 0.000005 -0.000006 -11.716801 -895.073669 -4.222481 -40.669634 2.279508 0.210406 -2.475500 392.932259 -28.358319 -5.311227 0.000002 -0.000012 -20.742800 -374.911515 26.873248 -4.628358 -0.000002 -0.000001 -16.666000 360.102736 25.750525 12.873073 -1.961890 0.232303 -2.727407 -1079.749307 -1.953307 11.647624 -0.000007 -0.000005 -20.526798 884.258802 158.338798 -182.093991 -0.000000 0.000004 -16.867298 48.551297 69.934963 -44.890582
